# Blender v2.78 (sub 0) OBJ File: ''
# www.blender.org
mtllib mtns.mtl
o Sahne_Plane
v -10.784442 0.000001 7.931818
v 10.471663 0.000001 7.931818
v -10.784442 -0.000001 -7.931818
v 10.471663 -0.000001 -7.931818
v -10.784442 0.028203 -0.000000
v 0.000000 0.000001 7.931818
v 10.471663 0.000000 0.000000
v -0.093431 0.011615 -7.931818
v -0.068404 0.292948 -0.000000
v -10.784442 0.000001 3.965909
v 4.898473 0.000001 7.931818
v 10.471663 -0.000001 -3.965909
v -5.013318 -0.000001 -7.931818
v -10.784442 -0.021778 -3.965909
v -5.013318 0.000001 7.931818
v 10.471663 0.000001 3.965909
v 4.878574 0.002570 -7.931818
v -0.290965 3.155951 -4.390138
v 0.000000 0.280114 3.965909
v -5.016087 0.280220 -0.024249
v 4.883143 0.280447 -0.000000
v 4.898473 0.000001 3.965909
v -5.008451 0.250578 3.965909
v -5.108301 1.894697 -4.152249
v 4.630672 5.980291 -4.213548
v -10.784442 0.000001 5.948864
v 7.956807 0.000001 7.931818
v 10.471663 -0.000001 -5.948864
v -8.204082 -0.000001 -7.931818
v -10.784442 -0.000000 -1.982955
v -2.088747 0.000001 7.931818
v 10.471663 0.000000 1.982955
v 1.973546 0.012856 -7.931818
v -0.272452 0.638086 -6.008359
v 0.000000 0.245236 1.982955
v -8.191991 0.328712 -0.024249
v 1.991786 0.414833 -0.000000
v -10.784442 0.052665 1.982955
v 2.077147 0.000001 7.931818
v 10.471663 0.042429 -1.982955
v -2.115170 0.003382 -7.931818
v -10.784442 -0.017353 -5.948864
v -8.204082 0.000001 7.931818
v 10.471663 0.000001 5.948864
v 7.956807 -0.000001 -7.931818
v -0.245149 0.678453 -2.042449
v 0.000000 0.039127 5.948864
v -2.101781 0.264555 -0.000000
v 7.955297 0.112790 -0.000000
v 4.897952 0.086850 1.982955
v 4.898473 0.000001 5.948864
v 2.077137 0.023983 3.965909
v 7.956807 0.000001 3.965909
v -5.012501 0.155257 1.982955
v -5.013309 0.010812 5.948864
v -8.204035 0.019053 3.965909
v -2.088563 0.091748 3.965909
v -4.846263 1.894660 -6.135204
v -5.319771 3.288077 -2.268609
v -8.184170 0.364659 -3.990159
v -2.401267 1.921348 -4.152249
v 4.812968 0.618922 -6.008359
v 4.817708 0.699145 -2.042449
v 1.786641 0.647473 -4.025404
v 7.904650 0.664119 -4.025404
v 7.937149 0.450228 -1.982955
v 1.869937 0.063206 -1.982955
v 1.841185 0.029475 -5.948864
v -2.170798 0.027689 -1.982955
v -7.775637 3.070525 -2.268609
v -8.202737 0.083159 -5.948864
v -2.088747 0.000001 5.948864
v -8.204082 0.000001 5.948864
v -8.199132 0.245447 1.982955
v 7.956807 0.000001 5.948864
v 2.077147 0.000001 5.948864
v 2.076867 0.120053 1.982955
v 7.956666 0.034401 1.982955
v -2.087422 0.299193 1.982955
v -2.221355 1.916849 -6.135204
v 7.956807 -0.000001 -5.948864
v -10.784442 0.000001 6.940341
v 9.330950 0.000001 7.931818
v 10.471663 -0.000001 -6.940341
v -9.625351 -0.000001 -7.931818
v -10.784442 -0.000000 -0.991477
v -0.991477 0.000001 7.931818
v 10.471663 0.000000 0.991477
v 0.882760 0.013479 -7.931818
v -0.162420 0.020004 -6.940341
v -0.013558 0.160799 0.991477
v -9.624278 0.109775 -0.000000
v 0.912416 0.244307 -0.000000
v -10.784442 0.000000 2.974432
v 3.409404 0.000001 7.931818
v 10.471663 0.023790 -2.974432
v -3.463022 0.000016 -7.931818
v -10.784442 -0.005432 -4.957386
v -6.630214 0.000001 7.931818
v 10.471663 0.000001 4.957386
v 6.446795 -0.000001 -7.931818
v -0.325442 2.839592 -3.260086
v 0.000000 0.157952 4.957386
v -3.461798 0.233674 -0.000000
v 6.432925 0.384925 -0.000000
v 4.895092 0.221304 0.991477
v 4.898473 0.000001 4.957386
v 0.991477 0.112704 3.965909
v 6.446795 0.000001 3.965909
v -5.008767 0.255608 0.991477
v -5.012860 0.076759 4.957386
v -9.625351 0.000001 3.965909
v -3.462593 0.087055 3.965909
v -5.008293 0.246535 -6.964591
v -5.197790 1.894471 -3.160771
v -9.625316 -0.007028 -3.965909
v -3.765113 3.012872 -4.251564
v 4.845113 0.006752 -6.940341
v 4.685642 3.416965 -3.260086
v 0.797172 2.920985 -4.251564
v 6.063649 3.170396 -4.251564
v -10.784442 0.000001 4.957386
v 6.446795 0.000001 7.931818
v 10.471663 -0.000001 -4.957386
v -6.630214 -0.000001 -7.931818
v -10.784442 -0.005696 -2.974432
v -3.462970 0.000001 7.931818
v 10.471663 0.000000 2.974432
v 3.339658 0.008719 -7.931818
v -0.286632 2.856861 -5.243041
v 0.000000 0.241682 2.974432
v -6.601192 0.684773 -0.059495
v 3.362497 0.190477 -0.000000
v -10.784442 0.013321 0.991477
v 0.991477 0.000001 7.931818
v 10.471663 0.007180 -0.991477
v -1.055340 0.007998 -7.931818
v -10.784442 -0.006923 -6.940341
v -9.625351 0.000001 7.931818
v 10.471663 0.000001 6.940341
v 9.330950 -0.000001 -7.931818
v -0.129303 0.124468 -0.991477
v 0.000000 0.000001 6.940341
v -1.028875 0.084514 -0.000000
v 9.330709 0.040931 -0.000000
v 4.898304 0.049409 2.974432
v 4.898473 0.000001 6.940341
v 3.409404 0.000001 3.965909
v 9.330950 0.000001 3.965909
v -5.011669 0.145777 2.974432
v -5.013318 0.000001 6.940341
v -6.630126 0.028755 3.965909
v -0.991477 0.170718 3.965909
v -4.929317 2.926509 -5.243041
v -5.164549 1.894451 -1.177817
v -6.617363 0.732617 -4.025404
v -1.425115 2.634053 -4.251564
v 4.690632 3.085824 -5.243041
v 4.861262 0.108557 -0.991477
v 3.300880 3.188717 -4.251564
v 9.330950 0.000678 -3.965909
v 7.945080 0.337536 -2.998681
v 7.938895 0.396371 -0.991477
v 6.422999 0.453793 -2.007204
v 9.330914 0.026456 -1.982955
v 1.810633 0.355241 -2.998681
v 1.919259 0.348768 -0.991477
v 0.748231 0.358800 -2.007204
v 3.255795 0.292676 -2.007204
v 1.900731 0.021699 -6.940341
v 1.799072 0.283840 -4.981636
v 0.720844 0.279683 -5.973114
v 3.238419 0.270995 -5.973114
v -2.218971 0.274208 -2.998681
v -2.149013 0.545802 -0.991477
v -3.578188 0.820459 -2.042450
v -1.163161 0.404586 -2.007204
v -7.937194 1.894450 -3.160771
v -7.918849 1.894451 -1.177817
v -9.566710 0.604866 -2.042449
v -6.429838 6.278935 -2.407184
v -8.204066 0.004550 -6.940341
v -8.185376 0.369811 -4.957386
v -9.621980 0.127321 -5.948864
v -6.612399 0.393667 -5.973114
v -2.088679 0.056085 4.957386
v -2.088747 0.000001 6.940341
v -3.462907 0.035537 5.948864
v -0.991477 0.015490 5.948864
v -8.204080 0.004822 4.957386
v -8.204082 0.000001 6.940341
v -9.625351 0.000001 5.948864
v -6.630133 0.027571 5.948864
v -8.162139 0.576506 0.991477
v -8.203012 0.089647 2.974432
v -9.624832 0.109413 1.982955
v -6.622361 0.325743 1.982955
v 7.956807 0.000001 4.957386
v 7.956807 0.000001 6.940341
v 6.446795 0.000001 5.948864
v 9.330950 0.000001 5.948864
v 2.077127 0.032246 4.957386
v 2.077147 0.000001 6.940341
v 0.991477 0.019621 5.948864
v 3.409404 0.000001 5.948864
v 2.059582 0.152869 0.991477
v 2.077114 0.041773 2.974432
v 0.991477 0.040623 1.982955
v 3.409403 0.005046 1.982955
v 7.956191 0.072032 0.991477
v 7.956807 0.000000 2.974432
v 6.446342 0.069456 1.982955
v 9.330950 0.000000 1.982955
v -2.088347 0.148602 0.991477
v -2.088561 0.092233 2.974432
v -3.461909 0.198785 1.982955
v -0.991477 0.084860 1.982955
v -2.161635 0.255788 -6.964591
v -2.431698 3.021515 -5.243041
v -3.393377 2.959255 -6.234518
v -1.181718 0.269877 -5.973114
v 7.956807 -0.000001 -6.940341
v 7.949533 0.246535 -4.981636
v 6.428948 0.248380 -5.973114
v 9.330950 -0.000001 -5.948864
v 9.330950 -0.000001 -4.957386
v 6.259493 1.902406 -5.143726
v 6.445159 0.000246 -6.940341
v -1.322355 1.934232 -5.143726
v -3.711305 4.846931 -5.381616
v -3.462918 0.607233 -6.999836
v -0.991477 0.199556 2.974432
v -3.462372 0.109675 2.974432
v -3.462164 0.140617 0.991477
v 9.330950 0.000000 2.974432
v 6.446795 0.000000 2.974432
v 6.438721 0.293487 0.991477
v 3.409174 0.072045 2.974432
v 0.991477 0.136105 2.974432
v 0.971660 0.187192 0.991477
v 3.409404 0.000001 6.940341
v 0.991477 0.000001 6.940341
v 0.991477 0.126139 4.957386
v 9.330950 0.000001 6.940341
v 6.446795 0.000001 6.940341
v 6.446795 0.000001 4.957386
v -6.627923 0.147369 2.974432
v -9.624952 0.049700 2.974432
v -9.621472 0.168508 0.991477
v -6.630214 0.000001 6.940341
v -9.625351 0.000001 6.940341
v -9.625351 0.000001 4.957386
v -0.991477 0.000001 6.940341
v -3.462970 0.000001 6.940341
v -3.462836 0.052048 4.957386
v -6.584562 0.739173 -5.016882
v -9.622968 0.116179 -4.957386
v -9.625110 0.031818 -6.940341
v -6.568456 3.198519 -1.277132
v -9.612055 0.286677 -1.015727
v -9.614982 0.247119 -2.998681
v -1.086152 0.147682 -0.991477
v -3.490358 0.378003 -1.015727
v -3.570241 0.645482 -3.033927
v 3.234916 1.934480 -5.143726
v 0.693861 1.948758 -5.143726
v 0.808061 0.022547 -6.940341
v 3.309748 0.099676 -0.991477
v 0.814209 0.584446 -0.991477
v 0.700440 1.947504 -3.160771
v 9.330626 0.054663 -0.991477
v 6.437495 0.315989 -0.991477
v 6.263002 1.913413 -3.160771
v 9.328886 0.143726 -2.974432
v 3.240162 1.933553 -3.160771
v 3.281719 0.015971 -6.940341
v -1.377721 1.932516 -3.160771
v -6.599411 3.109847 -3.260086
v -6.629879 0.049388 -6.940341
v -0.991477 0.079365 4.957386
v -6.629649 0.073188 4.957386
v -6.614127 0.404501 0.991477
v 9.330950 0.000001 4.957386
v 3.409404 0.000001 4.957386
v 3.395573 0.349748 0.991477
v 9.330717 0.040276 0.991477
v -0.996542 0.214764 0.991477
v -1.112348 0.014959 -6.940341
v 9.330950 -0.000001 -6.940341
vn 0.0356 0.9994 0.0003
vn 0.0371 0.9993 0.0054
vn 0.0000 1.0000 -0.0000
vn -0.0693 0.9955 0.0648
vn -0.0938 0.9899 0.1066
vn -0.0032 0.9994 0.0356
vn 0.0129 0.9998 0.0179
vn -0.0119 0.9995 0.0275
vn -0.0025 1.0000 0.0024
vn -0.0050 1.0000 0.0048
vn -0.0084 0.9999 0.0072
vn -0.0042 1.0000 0.0036
vn -0.0008 1.0000 0.0012
vn -0.0004 1.0000 0.0006
vn 0.0052 0.9998 0.0194
vn -0.0014 0.9998 0.0214
vn 0.0530 0.9941 0.0943
vn 0.0838 0.9964 -0.0109
vn 0.0030 1.0000 0.0033
vn 0.0023 1.0000 0.0025
vn 0.0045 1.0000 0.0049
vn 0.0090 0.9999 0.0099
vn 0.0069 0.9999 -0.0087
vn -0.0199 0.9997 -0.0149
vn 0.0166 0.9985 0.0531
vn 0.0116 0.9986 0.0523
vn -0.0298 0.9886 0.1476
vn -0.1014 0.9933 -0.0557
vn 0.0487 0.9977 0.0465
vn -0.0846 0.9963 0.0147
vn -0.0762 0.9971 -0.0048
vn 0.0643 0.9971 -0.0414
vn 0.0046 0.9999 0.0117
vn 0.0125 0.9998 0.0173
vn 0.0215 0.9983 0.0538
vn 0.0159 0.9996 0.0249
vn 0.0318 0.9995 0.0057
vn -0.0024 0.9990 0.0453
vn 0.0076 0.9981 0.0611
vn 0.1364 0.9906 -0.0075
vn 0.0840 0.9963 0.0207
vn 0.0098 0.9995 0.0296
vn 0.0998 0.9935 0.0545
vn 0.0257 0.9933 0.1129
vn 0.0521 0.9962 0.0697
vn -0.0213 0.9953 0.0949
vn -0.0679 0.9977 0.0070
vn -0.0458 0.9974 0.0565
vn -0.0214 0.9995 0.0250
vn -0.0207 0.9980 0.0605
vn -0.0088 0.9999 0.0139
vn -0.0024 1.0000 0.0026
vn -0.0071 0.9999 0.0078
vn -0.0080 0.9997 0.0234
vn 0.0604 0.9927 0.1047
vn -0.0000 0.9991 0.0415
vn 0.0057 0.9992 0.0391
vn 0.0115 0.9993 0.0366
vn -0.0465 0.9969 0.0639
vn -0.0176 0.9980 0.0604
vn -0.0513 0.9945 0.0916
vn -0.0248 0.9996 -0.0152
vn -0.0304 0.9992 0.0254
vn 0.0041 0.9984 0.0562
vn 0.0211 0.9998 -0.0042
vn 0.0121 0.9998 0.0163
vn 0.0240 0.9989 0.0392
vn 0.0176 0.9996 0.0203
vn -0.0045 1.0000 -0.0080
vn -0.0034 1.0000 -0.0085
vn -0.0033 1.0000 -0.0085
vn -0.0792 0.9968 0.0044
vn 0.0127 0.9986 -0.0507
vn 0.1676 0.9752 0.1443
vn -0.0612 0.9870 -0.1489
vn 0.0033 0.5944 -0.8041
vn 0.0042 1.0000 -0.0068
vn 0.0039 1.0000 -0.0039
vn 0.0039 1.0000 -0.0038
vn 0.0043 1.0000 -0.0067
vn 0.0526 0.9951 -0.0837
vn 0.6788 0.6228 0.3889
vn -0.0261 0.9951 0.0952
vn 0.0138 0.9999 0.0036
vn 0.8209 0.4773 0.3135
vn 0.2271 0.9405 -0.2526
vn -0.1196 0.9265 0.3569
vn -0.0009 1.0000 -0.0090
vn 0.0021 1.0000 -0.0085
vn 0.0022 1.0000 -0.0084
vn -0.0007 1.0000 -0.0090
vn 0.5499 0.5806 -0.6004
vn -0.2120 0.3464 -0.9138
vn 0.2341 0.5106 0.8273
vn 0.2229 0.9736 -0.0486
vn -0.1161 0.9209 0.3722
vn -0.4633 0.6612 -0.5901
vn -0.6854 0.6223 0.3781
vn 0.0096 0.9998 -0.0183
vn -0.0724 0.9880 -0.1367
vn -0.6770 0.5803 -0.4527
vn -0.2108 0.9668 -0.1442
vn -0.0613 0.9923 0.1077
vn -0.0619 0.9848 0.1624
vn 0.1599 0.9850 0.0651
vn -0.0141 0.9944 0.1049
vn 0.1243 0.9051 -0.4066
vn -0.2956 0.3528 -0.8878
vn 0.0015 1.0000 -0.0012
vn 0.0000 1.0000 -0.0001
vn 0.4183 0.6442 -0.6403
vn 0.0001 1.0000 -0.0002
vn 0.0895 0.9882 -0.1241
vn 0.3077 0.9317 -0.1930
vn 0.0003 1.0000 -0.0003
vn 0.2166 0.3656 -0.9052
vn 0.7106 0.5635 -0.4213
vn 0.1107 0.9064 -0.4077
vn 0.0819 0.9888 -0.1246
vn 0.6549 0.4572 -0.6018
vn -0.1103 0.9066 -0.4073
vn -0.2175 0.3723 -0.9023
vn 0.2502 0.3570 -0.9000
vn -0.0024 0.9988 0.0497
vn 0.0515 0.9970 0.0583
vn 0.0231 0.9995 0.0213
vn -0.0392 0.9937 -0.1046
vn -0.0569 0.9955 0.0761
vn -0.0174 0.9839 0.1780
vn 0.0837 0.9880 0.1300
vn 0.1544 0.9870 -0.0458
vn 0.0113 0.9955 0.0944
vn 0.0898 0.9955 0.0297
vn -0.0207 0.9957 0.0905
vn -0.0431 0.9852 0.1658
vn -0.1014 0.9946 -0.0219
vn -0.0909 0.9958 0.0098
vn -0.1821 0.9655 0.1863
vn -0.2064 0.9321 -0.2977
vn -0.2266 0.9740 0.0022
vn -0.6862 0.6765 0.2675
vn -0.1138 0.9935 -0.0004
vn -0.0585 0.9958 0.0700
vn -0.2113 0.9753 0.0638
vn -0.0167 0.9998 -0.0126
vn -0.0787 0.9960 -0.0426
vn 0.0250 0.9959 -0.0875
vn -0.2447 0.5009 0.8302
vn 0.2415 0.4884 0.8385
vn -0.3418 0.9294 0.1389
vn -0.1548 0.9853 0.0721
vn -0.3999 0.7395 0.5415
vn -0.1145 0.9842 -0.1352
vn -0.3386 0.9264 -0.1645
vn -0.7211 0.5712 -0.3921
vn 0.0086 0.9915 -0.1295
vn 0.2583 0.9540 0.1521
vn -0.0960 0.9943 -0.0471
vn 0.6557 0.6061 0.4502
vn 0.3281 0.7467 0.5786
vn -0.0736 0.9750 0.2095
vn 0.0233 0.6826 0.7304
vn 0.6868 0.5811 -0.4366
vn 0.3879 0.9214 0.0251
vn -0.4477 0.6056 -0.6578
vn -0.7621 0.4980 -0.4138
vn 0.2946 0.3653 -0.8830
vn 0.8434 0.4149 -0.3413
vn 0.1705 0.9015 -0.3977
vn 0.1132 0.9857 -0.1248
vn 0.0067 0.9989 -0.0464
vn 0.1683 0.9818 -0.0883
vn -0.0319 0.9910 -0.1301
vn -0.0742 0.9839 0.1628
vn -0.2080 0.9729 0.1009
vn 0.0295 0.9905 0.1344
vn 0.2594 0.5225 0.8122
vn 0.5133 0.6608 0.5476
vn 0.2650 0.9642 0.0123
vn 0.1462 0.9785 0.1455
vn 0.0387 0.9992 0.0105
vn 0.0076 0.9432 0.3322
vn -0.0986 0.9880 -0.1191
vn 0.0629 0.9923 0.1070
vn 0.2350 0.4922 0.8382
vn 0.3684 0.8012 0.4716
vn 0.2886 0.9540 0.0813
vn 0.2170 0.9762 0.0029
vn 0.0454 0.9977 0.0496
vn -0.7293 0.5584 0.3954
vn -0.3951 0.6791 0.6187
vn -0.2486 0.4564 0.8544
vn -0.0850 0.9869 -0.1369
vn -0.1022 0.9034 -0.4165
vn -0.5957 0.5237 0.6090
vn -0.5912 0.5877 0.5523
vn -0.2491 0.5095 0.8236
vn -0.2486 0.3804 -0.8908
vn -0.0142 0.9995 -0.0272
vn -0.1107 0.9717 -0.2087
vn -0.3593 0.6426 -0.6767
vn -0.0583 0.9982 0.0162
vn 0.0287 0.9788 0.2029
vn 0.0984 0.9911 0.0901
vn 0.0101 0.9986 0.0512
vn -0.0301 0.9818 0.1874
vn 0.0152 0.9719 0.2347
vn 0.0376 0.9991 0.0208
vn 0.0525 0.9986 -0.0084
vn 0.0676 0.9977 -0.0106
vn -0.0538 0.9983 0.0234
vn 0.1118 0.9859 -0.1246
vn 0.5754 0.5797 -0.5769
vn -0.1859 0.8860 -0.4248
vn -0.4804 0.7962 0.3677
vn -0.5783 0.3857 0.7189
vn 0.5614 0.3696 0.7404
vn 0.6166 0.4750 -0.6279
vn 0.5251 0.3831 -0.7599
vn 0.1732 0.9642 0.2010
vn -0.5294 0.7219 -0.4457
vn -0.5051 0.3906 -0.7696
vn -0.5719 0.5310 0.6253
vn 0.5086 0.5170 0.6885
vn -0.6069 0.3989 0.6874
vn -0.5244 0.3585 -0.7723
vn 0.4535 0.7079 -0.5415
vn 0.3690 0.7941 0.4830
vn 0.5792 0.4142 0.7021
vn -0.6140 0.3340 -0.7152
vn 0.5604 0.2908 -0.7755
usemtl Zemin
s 1
f 286//1 88//1 7//2 145//2
f 284//3 107//3 22//3 148//3
f 283//3 100//3 16//3 149//3
f 281//4 111//4 23//4 152//4
f 280//5 103//5 19//5 153//5
f 255//6 186//6 57//6 113//6
f 254//7 187//7 72//7 188//7
f 253//8 143//8 47//8 189//8
f 252//9 190//10 56//11 112//12
f 251//3 191//3 73//13 192//14
f 250//15 151//16 55//16 193//15
f 247//17 150//17 54//17 197//17
f 246//3 198//3 53//3 109//3
f 245//3 199//3 75//3 200//3
f 244//3 140//3 44//3 201//3
f 243//18 202//18 52//18 108//18
f 242//19 203//20 76//21 204//22
f 241//3 147//3 51//3 205//3
f 239//23 207//23 77//23 208//23
f 238//24 146//24 50//24 209//24
f 236//25 211//26 78//26 212//25
f 235//3 128//3 32//3 213//3
f 233//27 215//27 79//27 216//27
f 232//28 131//28 35//28 217//28
f 215//29 232//29 217//29 79//29
f 57//30 153//30 232//30 215//30
f 153//31 19//31 131//31 232//31
f 23//32 113//32 233//32 150//32
f 113//33 57//33 215//33 233//33
f 211//34 235//34 213//34 78//34
f 53//3 149//3 235//3 211//3
f 149//3 16//3 128//3 235//3
f 146//35 236//25 212//25 50//35
f 22//36 109//36 236//36 146//36
f 109//3 53//3 211//3 236//3
f 207//37 238//37 209//37 77//37
f 52//38 148//38 238//38 207//38
f 148//39 22//39 146//39 238//39
f 19//40 108//40 239//40 131//40
f 108//41 52//41 207//41 239//41
f 203//20 241//3 205//3 76//21
f 39//3 95//3 241//3 203//20
f 95//3 11//3 147//3 241//3
f 143//42 242//42 204//42 47//42
f 6//3 135//3 242//19 143//3
f 135//3 39//3 203//20 242//19
f 103//43 243//43 108//43 19//43
f 47//44 204//44 243//44 103//44
f 204//45 76//45 202//45 243//45
f 199//3 244//3 201//3 75//3
f 27//3 83//3 244//3 199//3
f 83//3 2//3 140//3 244//3
f 147//3 245//3 200//3 51//3
f 11//3 123//3 245//3 147//3
f 123//3 27//3 199//3 245//3
f 107//3 246//3 109//3 22//3
f 51//3 200//3 246//3 107//3
f 200//3 75//3 198//3 246//3
f 56//46 152//46 247//46 195//46
f 152//47 23//47 150//47 247//47
f 94//48 248//48 196//48 38//48
f 10//49 112//49 248//49 94//49
f 112//50 56//50 195//50 248//50
f 191//51 250//51 193//51 73//51
f 43//3 99//3 250//3 191//3
f 99//3 15//3 151//3 250//3
f 82//3 251//3 192//14 26//3
f 1//3 139//3 251//3 82//3
f 139//3 43//3 191//3 251//3
f 122//3 252//9 112//12 10//3
f 26//3 192//14 252//9 122//3
f 192//14 73//13 190//10 252//9
f 187//52 253//52 189//53 72//53
f 31//3 87//3 253//52 187//52
f 87//3 6//3 143//3 253//52
f 151//16 254//54 188//54 55//16
f 15//3 127//3 254//3 151//3
f 127//3 31//3 187//52 254//3
f 111//55 255//55 113//55 23//55
f 55//56 188//57 255//57 111//56
f 188//57 72//58 186//58 255//57
f 186//59 280//59 153//59 57//59
f 72//60 189//60 280//60 186//60
f 189//61 47//61 103//61 280//61
f 190//62 281//62 152//62 56//62
f 73//63 193//63 281//63 190//63
f 193//64 55//64 111//64 281//64
f 198//3 283//3 149//3 53//3
f 75//3 201//3 283//3 198//3
f 201//3 44//3 100//3 283//3
f 202//65 284//65 148//65 52//65
f 76//66 205//66 284//66 202//66
f 205//3 51//3 107//3 284//3
f 78//67 213//67 286//67 210//67
f 213//68 32//68 88//68 286//68
usemtl Dag
f 289//3 84//3 4//3 141//3
f 288//69 90//70 8//71 137//69
f 287//72 91//72 9//72 144//72
f 285//73 106//73 21//73 133//73
f 282//74 110//74 20//74 132//74
f 279//75 114//75 13//75 125//75
f 278//76 115//76 24//76 156//76
f 276//77 118//78 17//79 129//80
f 274//81 96//81 12//81 161//81
f 273//82 162//82 65//82 121//82
f 272//83 163//83 66//83 164//83
f 271//84 136//84 40//84 165//84
f 270//85 166//85 64//85 120//85
f 269//86 167//86 67//86 168//86
f 268//87 159//87 63//87 169//87
f 267//88 170//89 33//90 89//91
f 266//92 171//92 68//92 172//92
f 265//93 158//93 62//93 173//93
f 264//94 174//94 61//94 117//94
f 263//95 175//95 69//95 176//95
f 262//96 142//96 46//96 177//96
f 261//97 178//97 60//97 116//97
f 260//98 179//98 70//98 180//98
f 258//99 182//99 29//99 85//99
f 257//100 183//100 71//100 184//100
f 256//101 154//101 58//101 185//101
f 249//102 194//102 36//102 92//102
f 248//103 195//103 74//103 196//103
f 240//104 206//104 37//104 93//104
f 237//105 210//105 49//105 105//105
f 234//106 214//106 48//106 104//106
f 231//107 218//107 41//107 97//107
f 229//108 130//108 34//108 221//108
f 228//109 222//3 45//110 101//109
f 227//111 223//111 81//111 224//111
f 226//112 124//112 28//3 225//3
f 223//113 226//113 225//113 81//113
f 65//114 161//114 226//114 223//114
f 161//115 12//115 124//112 226//112
f 158//116 227//116 224//116 62//116
f 121//117 65//117 223//117 227//117
f 118//78 228//109 101//109 17//79
f 62//118 224//118 228//118 118//118
f 224//119 81//119 222//119 228//119
f 219//120 229//120 221//120 80//120
f 114//121 231//121 97//121 13//121
f 58//122 220//122 231//122 114//122
f 220//123 80//123 218//123 231//123
f 150//124 233//124 216//124 54//124
f 110//125 234//125 104//125 20//125
f 54//126 216//126 234//126 110//126
f 216//127 79//127 214//127 234//127
f 106//128 237//128 105//128 21//128
f 50//129 212//129 237//129 106//129
f 212//130 78//130 210//130 237//130
f 131//131 239//131 208//131 35//131
f 91//132 240//132 93//132 9//132
f 35//133 208//133 240//133 91//133
f 208//134 77//134 206//134 240//134
f 195//135 247//135 197//135 74//135
f 134//136 249//136 92//136 5//136
f 38//137 196//137 249//137 134//137
f 196//138 74//138 194//138 249//138
f 183//139 256//139 185//139 71//139
f 60//140 156//140 256//140 183//140
f 156//141 24//141 154//141 256//141
f 98//142 257//142 184//142 42//142
f 14//143 116//143 257//143 98//143
f 116//144 60//144 183//144 257//144
f 138//145 258//145 85//145 3//145
f 42//146 184//146 258//146 138//146
f 184//147 71//147 182//147 258//147
f 36//148 132//148 259//148 179//148
f 132//149 20//149 155//149 259//149
f 86//150 260//150 180//150 30//150
f 5//151 92//151 260//151 86//151
f 92//152 36//152 179//152 260//152
f 126//153 261//153 116//153 14//153
f 30//154 180//154 261//154 126//154
f 180//155 70//155 178//155 261//155
f 175//156 262//156 177//156 69//156
f 48//157 144//157 262//157 175//157
f 144//158 9//158 142//158 262//158
f 155//159 263//159 176//159 59//159
f 20//160 104//160 263//160 155//160
f 104//161 48//161 175//161 263//161
f 115//162 264//162 117//162 24//162
f 59//163 176//163 264//163 115//163
f 176//164 69//164 174//164 264//164
f 171//165 265//165 173//165 68//165
f 64//166 160//166 265//166 171//166
f 130//167 266//167 172//167 34//167
f 120//168 64//168 171//168 266//168
f 90//70 267//88 89//91 8//71
f 34//169 172//169 267//169 90//169
f 172//170 68//170 170//170 267//170
f 167//171 268//171 169//171 67//171
f 37//172 133//172 268//172 167//172
f 133//173 21//173 159//173 268//173
f 142//174 269//174 168//174 46//174
f 9//175 93//175 269//175 142//175
f 93//176 37//176 167//176 269//176
f 46//177 168//177 270//177 102//177
f 168//178 67//178 166//178 270//178
f 163//179 271//179 165//179 66//179
f 49//180 145//180 271//180 163//180
f 145//2 7//2 136//181 271//181
f 159//182 272//182 164//182 63//182
f 21//183 105//183 272//183 159//183
f 105//184 49//184 163//184 272//184
f 63//185 164//185 273//185 119//185
f 164//186 66//186 162//186 273//186
f 162//187 274//187 161//187 65//187
f 66//188 165//188 274//188 162//188
f 165//189 40//189 96//189 274//189
f 166//190 275//190 160//190 64//190
f 67//191 169//191 275//191 166//191
f 169//192 63//192 119//192 275//192
f 170//89 276//77 129//80 33//90
f 68//193 173//193 276//193 170//193
f 173//194 62//194 118//194 276//194
f 174//195 277//195 157//195 61//195
f 69//196 177//196 277//196 174//196
f 177//197 46//197 102//197 277//197
f 178//198 278//198 156//198 60//198
f 182//199 279//199 125//199 29//199
f 71//200 185//200 279//200 182//200
f 185//201 58//201 114//201 279//201
f 194//202 282//202 132//202 36//202
f 74//203 197//203 282//203 194//203
f 197//204 54//204 110//204 282//204
f 206//205 285//205 133//205 37//205
f 77//206 209//206 285//206 206//206
f 209//207 50//207 106//207 285//207
f 210//208 286//208 145//208 49//208
f 214//209 287//209 144//209 48//209
f 79//210 217//210 287//210 214//210
f 217//211 35//211 91//211 287//211
f 218//212 288//212 137//212 41//212
f 80//213 221//213 288//213 218//213
f 221//214 34//214 90//214 288//214
f 222//3 289//3 141//3 45//110
f 81//3 225//3 289//3 222//3
f 225//3 28//3 84//3 289//3
usemtl Kar
f 277//215 102//215 18//215 157//215
f 275//216 119//216 25//216 160//216
f 259//217 155//217 59//217 181//217
f 230//218 219//218 80//218 220//218
f 25//219 121//219 227//219 158//219
f 61//220 157//220 229//220 219//220
f 157//221 18//221 130//221 229//221
f 154//222 230//222 220//222 58//222
f 24//223 117//223 230//223 154//223
f 117//224 61//224 219//224 230//224
f 179//225 259//225 181//225 70//225
f 160//226 25//226 158//226 265//226
f 18//227 120//227 266//227 130//227
f 102//228 270//228 120//228 18//228
f 119//229 273//229 121//229 25//229
f 70//230 181//230 278//230 178//230
f 181//231 59//231 115//231 278//231
